<svg xmlns="http://www.w3.org/2000/svg" version="1.1" xmlns:xlink="http://www.w3.org/1999/xlink" width="512" height="512" x="0" y="0" viewBox="0 0 472 472.201" style="enable-background:new 0 0 512 512" xml:space="preserve" class=""><g><path d="M160.89 88h.051c16.567-.004 29.996-13.441 29.993-30.008-.008-16.57-13.442-29.996-30.012-29.992h-.012c-16.566-.004-30.004 13.422-30.008 29.992C130.895 74.56 144.32 87.996 160.891 88zM90.102 171.184a60.452 60.452 0 0 1 18.113-43.043c.543-.54 1.234-.938 1.797-1.453A47.472 47.472 0 0 0 65.586 96H46.914a46.43 46.43 0 0 0-33.129 13.52A46.424 46.424 0 0 0 .102 142.582V194h90zM231.102 171.434V194h91v-51.25A46.44 46.44 0 0 0 275.372 96h-18.767c-19.851.027-37.644 12.262-44.777 30.79.57.53 1.05.815 1.606 1.37a60.705 60.705 0 0 1 17.668 43.274zM104.102 171.422V223h113v-51.578a46.977 46.977 0 0 0-13.582-33.465A46.45 46.45 0 0 0 170.37 124h-18.844c-26.101.059-47.273 21.152-47.425 47.254zM265.5 59h.488a29.093 29.093 0 0 0 20.778-8.488 29.08 29.08 0 0 0 8.558-20.75A29.764 29.764 0 0 0 265.534 0h-.014c-16.293-.004-29.504 13.2-29.508 29.492C236.008 45.785 249.21 58.996 265.5 59zM56.277 59.434c.008 0 .012.011.02.015 16.375 0 29.453-13.094 29.8-29.851A29.628 29.628 0 0 0 56.31 0H56.3a29.757 29.757 0 0 0-21.063 8.676 29.754 29.754 0 0 0-8.75 21.035c.043 16.426 13.367 29.719 29.793 29.723zM82.066 345.453l30.508-.062.035-16.368-30.507.09zM240.477 392.8l.046-30.823-30.53.101-.063 30.977c-.051 26.949-21.84 48.808-48.785 48.945h-.067c-26.945-.102-48.707-22.031-48.598-48.977l.067-33.632-30.508.062-.066 33.723a78.85 78.85 0 0 0 79.09 79.023c43.78-.172 79.23-35.617 79.414-79.398zM240.57 328.816l-30.511.036-.04 19.152 30.524-.063zM94.367 296a7.154 7.154 0 0 0 7-7.16l.086-27.969a7.041 7.041 0 0 0-6.976-7.07 6.963 6.963 0 0 0-7.024 6.957l-.086 28.05a7.142 7.142 0 0 0 6.98 7.192zM128.758 311.129l19.703-19.7a6.997 6.997 0 0 0 0-9.898 7.002 7.002 0 0 0-9.902 0l-19.7 19.7c-2.734 2.734-2.734 7.164 0 9.898s7.168 2.734 9.899 0zM45.105 276.434a7.002 7.002 0 0 0 0 9.902l19.7 19.7c2.734 2.734 7.168 2.734 9.902 0s2.734-7.165 0-9.9l-19.7-19.702a7.01 7.01 0 0 0-9.902 0zM227.008 295a6.828 6.828 0 0 0 7-6.777l.043-27.567a6.676 6.676 0 0 0-2.078-4.812 6.69 6.69 0 0 0-4.91-1.844h-.012a6.791 6.791 0 0 0-4.918 1.898 6.765 6.765 0 0 0-2.082 4.844l-.047 27.582A6.721 6.721 0 0 0 227 295zM269.332 278.836l-19.742 19.742a7.005 7.005 0 0 0 0 9.899 7.002 7.002 0 0 0 9.902 0l19.742-19.743a6.997 6.997 0 0 0 0-9.898 7.002 7.002 0 0 0-9.902 0zM202.977 307.922a6.997 6.997 0 0 0 4.949-11.95l-19.7-19.699a6.997 6.997 0 0 0-9.898 0 6.997 6.997 0 0 0 0 9.899l19.7 19.7a6.969 6.969 0 0 0 4.949 2.05zm0 0" fill="#000000" opacity="1" data-original="#000000" class=""></path></g></svg>