<svg xmlns="http://www.w3.org/2000/svg" version="1.1" xmlns:xlink="http://www.w3.org/1999/xlink" width="512" height="512" x="0" y="0" viewBox="0 0 36 36" style="enable-background:new 0 0 512 512" xml:space="preserve" class=""><g><path d="M33 8.905h-5.311V3.846a2 2 0 0 0-2-2H10.312a2 2 0 0 0-2 2v5.059H3c-1.656 0-3 1.344-3 3v19.25a3 3 0 0 0 3 3h30a3 3 0 0 0 3-3v-19.25a3 3 0 0 0-3-3zM12.312 5.848h11.377v3.06H12.312v-3.06z" fill="#000000" opacity="1" data-original="#000000" class=""></path></g></svg>